<svg xmlns="http://www.w3.org/2000/svg" viewBox="0 0 280 86" role="img" aria-label="ZapClin">
  <defs>
    <linearGradient id="g" x1="0" y1="0" x2="1" y2="1">
      <stop offset="0%" stop-color="#5cffd7"/>
      <stop offset="100%" stop-color="#00c8e0"/>
    </linearGradient>
  </defs>
  <g fill="none" stroke="url(#g)" stroke-width="3.2" stroke-linecap="round" stroke-linejoin="round">
    <path d="M38 58c-10-2-16-10-16-20 0-14 12-26 30-26 14 0 24 7 28 18"/>
    <path d="M52 20c8 2 14 8 16 16 2 10-2 20-12 26-6 4-14 6-22 4"/>
    <path d="M34 36c4-8 12-12 22-10 6 1 10 5 12 10"/>
    <path d="M20 34c-4-2-8-1-10 3"/>
  </g>
  <circle cx="58" cy="24" r="2.2" fill="#5cffd7"/>
  <path d="M66 18l2.5 2.5M70 14l1.5 1.5" stroke="#5cffd7" stroke-width="2" stroke-linecap="round"/>
  <text x="92" y="42" font-family="Segoe UI, Arial, sans-serif" font-size="34" font-weight="800" letter-spacing="-0.5">
    <tspan fill="#5cffd7">Zap</tspan><tspan fill="#f5f7ff">Clin</tspan>
  </text>
  <text x="94" y="64" fill="#8b93a7" font-family="Segoe UI, Arial, sans-serif" font-size="11" letter-spacing="1.6">HIGIENIZAÇÃO DE CAPACETES</text>
</svg>
